HIERARCHY
ROOT Hips
{
	OFFSET 0.000000 0.000000 0.000000
	CHANNELS 6 Xposition Yposition Zposition Xrotation Yrotation Zrotation
	JOINT LeftUpLeg_virtual
	{
		OFFSET 0.000000 0.000000 0.000000
		CHANNELS 3 Xrotation Yrotation Zrotation
		JOINT LeftUpLeg
		{
			OFFSET 11.394100 -6.187798 -0.413800
			CHANNELS 3 Xrotation Yrotation Zrotation
			JOINT LeftLeg
			{
				OFFSET 0.430247 -32.302673 3.732800
				CHANNELS 3 Xrotation Yrotation Zrotation
				JOINT LeftFoot
				{
					OFFSET -0.430247 -48.264931 -6.423300
					CHANNELS 3 Xrotation Yrotation Zrotation
					JOINT LeftToeBase
					{
						OFFSET 4.230900 -16.068199 23.438400
						CHANNELS 3 Xrotation Yrotation Zrotation
						JOINT LeftToe_End
						{
							OFFSET 4.510700 0.695400 19.974600
							CHANNELS 3 Xrotation Yrotation Zrotation
							End Site
							{
								OFFSET 0 0 0
							}
						}
					}
				}
			}
		}
	}
	JOINT RightUpLeg_virtual
	{
		OFFSET 0.000000 0.000000 0.000000
		CHANNELS 3 Xrotation Yrotation Zrotation
		JOINT RightUpLeg
		{
			OFFSET -11.333700 -6.187798 -0.413800
			CHANNELS 3 Xrotation Yrotation Zrotation
			JOINT RightLeg
			{
				OFFSET -0.430392 -32.302628 3.733000
				CHANNELS 3 Xrotation Yrotation Zrotation
				JOINT RightFoot
				{
					OFFSET 0.430392 -48.264973 -6.423500
					CHANNELS 3 Xrotation Yrotation Zrotation
					JOINT RightToeBase
					{
						OFFSET -4.230900 -16.068199 23.438400
						CHANNELS 3 Xrotation Yrotation Zrotation
						JOINT RightToe_End
						{
							OFFSET -4.510700 0.695400 19.974600
							CHANNELS 3 Xrotation Yrotation Zrotation
							End Site
							{
								OFFSET 0 0 0
							}
						}
					}
				}
			}
		}
	}
	JOINT Spine_virtual
	{
		OFFSET 0.000000 0.000000 0.000000
		CHANNELS 3 Xrotation Yrotation Zrotation
		JOINT Spine
		{
			OFFSET -0.002400 12.777504 0.315300
			CHANNELS 3 Xrotation Yrotation Zrotation
			JOINT Spine1
			{
				OFFSET -0.002067 5.816869 0.032633
				CHANNELS 3 Xrotation Yrotation Zrotation
				JOINT Spine1_split
				{
					OFFSET -0.002067 5.816869 0.032633
					CHANNELS 3 Xrotation Yrotation Zrotation
					JOINT Spine2
					{
						OFFSET -0.002067 5.816869 0.032633
						CHANNELS 3 Xrotation Yrotation Zrotation
						JOINT Neck_virtual
						{
							OFFSET 0.000000 0.000000 0.000000
							CHANNELS 3 Xrotation Yrotation Zrotation
							JOINT Neck
							{
								OFFSET -0.003700 21.199493 -0.826900
								CHANNELS 3 Xrotation Yrotation Zrotation
								JOINT Head
								{
									OFFSET 0.000000 20.442200 4.834800
									CHANNELS 3 Xrotation Yrotation Zrotation
									JOINT HeadTop_End
									{
										OFFSET 0.000000 34.668396 4.968400
										CHANNELS 3 Xrotation Yrotation Zrotation
										End Site
										{
											OFFSET 0 0 0
										}
									}
								}
							}
						}
						JOINT LeftShoulder_virtual
						{
							OFFSET 0.000000 0.000000 0.000000
							CHANNELS 3 Xrotation Yrotation Zrotation
							JOINT LeftShoulder
							{
								OFFSET 3.288150 8.794197 -1.372250
								CHANNELS 3 Xrotation Yrotation Zrotation
								JOINT LeftShoulder_split
								{
									OFFSET 3.288150 8.794197 -1.372250
									CHANNELS 3 Xrotation Yrotation Zrotation
									JOINT LeftArm
									{
										OFFSET 11.953299 -2.279007 -0.146200
										CHANNELS 3 Xrotation Yrotation Zrotation
										JOINT LeftForeArm
										{
											OFFSET 18.448900 0.000000 0.000000
											CHANNELS 3 Xrotation Yrotation Zrotation
											JOINT LeftHand
											{
												OFFSET 29.527798 0.000000 0.000000
												CHANNELS 3 Xrotation Yrotation Zrotation
												End Site
												{
													OFFSET 0 0 0
												}
											}
										}
									}
								}
							}
						}
						JOINT RightShoulder_virtual
						{
							OFFSET 0.000000 0.000000 0.000000
							CHANNELS 3 Xrotation Yrotation Zrotation
							JOINT RightShoulder
							{
								OFFSET -3.249400 8.794197 -1.372250
								CHANNELS 3 Xrotation Yrotation Zrotation
								JOINT RightShoulder_split
								{
									OFFSET -3.249400 8.794197 -1.372250
									CHANNELS 3 Xrotation Yrotation Zrotation
									JOINT RightArm
									{
										OFFSET -11.953299 -2.279007 -0.146200
										CHANNELS 3 Xrotation Yrotation Zrotation
										JOINT RightForeArm
										{
											OFFSET -18.448900 0.000000 0.000000
											CHANNELS 3 Xrotation Yrotation Zrotation
											JOINT RightHand
											{
												OFFSET -29.527802 0.000000 0.000000
												CHANNELS 3 Xrotation Yrotation Zrotation
												End Site
												{
													OFFSET 0 0 0
												}
											}
										}
									}
								}
							}
						}
					}
				}
			}
		}
	}
}
MOTION
Frames: 10
Frame Time: 0.03333333
0.188491 115.132034 -5.348335 0.000000 0.000000 0.000000 -86.142469 -4.840922 1.216407 5.605493 20.295246 7.630550 -5.924161 6.709055 8.677483 38.163457 25.857156 -26.670808 -12.001248 0.297368 5.313842 0.000000 0.000000 0.000000 -88.145873 -0.723386 4.189090 1.892360 -21.409411 -14.156884 -4.442386 -1.863537 -8.773536 43.190326 -28.057920 35.059470 -8.573568 1.499432 -2.829528 0.000000 0.000000 0.000000 -86.566835 -6.414371 -1.190908 4.981201 -2.115301 0.935782 4.703696 -0.946405 -1.480423 0.454456 0.698218 -0.375465 0.000000 0.000000 0.000000 5.561641 -1.505453 -1.288139 -8.418805 -1.513425 2.458977 -9.706022 -3.638070 4.562794 0.000000 0.000000 0.000000 6.595707 -1.560946 -0.938202 -0.235793 3.598227 -7.803453 -4.304400 1.847890 -4.318389 39.846545 -32.325585 -34.510992 -26.225763 -88.387962 -25.690887 0.000000 0.000000 0.000000 5.937509 -1.497339 -1.408107 0.442317 -3.276384 19.419039 1.142489 2.512554 0.184144 -41.173046 49.669733 58.706651 179.789266 76.734375 178.668077 0.000000 0.000000 0.000000 
0.125354 115.162529 -5.762978 0.000000 0.000000 0.000000 -86.962870 -4.778706 1.359288 6.909537 20.341343 7.643037 -6.013189 7.178467 8.779515 37.671912 26.210106 -26.858981 -11.906724 0.309844 5.476962 0.000000 0.000000 0.000000 -89.215992 -0.517886 4.565289 2.323831 -22.428856 -14.137692 -4.286027 -1.814652 -8.777173 43.193580 -27.772417 34.975070 -8.524809 1.572868 -2.670442 0.000000 0.000000 0.000000 -87.615706 -6.186132 -0.936652 4.969637 -2.188791 0.968157 4.433156 -1.016089 -1.614637 0.633437 0.687302 -0.411269 0.000000 0.000000 0.000000 5.460614 -1.557819 -1.444333 -9.126645 -1.389367 2.611948 -11.657618 -3.134803 5.383107 0.000000 0.000000 0.000000 6.460656 -1.612682 -1.101866 -0.186840 3.122698 -7.065198 -4.476120 1.528247 -4.175043 38.942610 -32.229730 -35.820715 -27.136833 -88.525276 -26.501790 0.000000 0.000000 0.000000 5.723434 -1.530978 -1.515963 0.445183 -3.007711 18.109441 0.843289 2.831212 -0.122536 -44.990876 47.878468 61.352598 -178.402533 77.916421 176.832614 0.000000 0.000000 0.000000 
0.104535 115.125557 -5.937870 0.000000 0.000000 0.000000 -87.499340 -4.735602 1.383212 7.757343 20.160724 7.901367 -5.881733 7.528636 8.855421 37.354796 26.681548 -27.039078 -11.884117 0.296303 5.686803 0.000000 0.000000 0.000000 -89.902638 -0.461886 4.678844 2.466208 -23.218605 -14.009331 -4.295379 -1.840228 -8.736714 43.722353 -27.438103 34.889815 -9.045988 1.624083 -2.533184 0.000000 0.000000 0.000000 -88.313444 -5.999509 -0.821145 4.910039 -2.157891 1.089878 4.336829 -1.024885 -1.661484 0.806889 0.657721 -0.403494 0.000000 0.000000 0.000000 5.406551 -1.542278 -1.539066 -9.325197 -1.219712 2.426057 -11.911531 -2.557509 5.842580 0.000000 0.000000 0.000000 6.431596 -1.615153 -1.217499 -0.155042 2.595538 -6.611048 -4.536654 1.274905 -3.873967 38.370223 -32.280905 -36.524327 -27.745318 -88.859620 -27.090847 0.000000 0.000000 0.000000 5.659642 -1.475715 -1.536656 0.470969 -2.706678 17.072297 0.413322 2.989430 -0.368474 -46.530930 46.922590 61.926661 -176.622190 78.984431 175.073758 0.000000 0.000000 0.000000 
0.117468 115.054764 -5.911823 0.000000 0.000000 0.000000 -87.707415 -4.707863 1.300031 8.050914 19.742453 8.330217 -5.582116 7.698089 8.910987 37.270925 27.159052 -27.223042 -11.838112 0.271618 5.857600 0.000000 0.000000 0.000000 -90.162377 -0.574800 4.501514 2.416029 -23.595404 -13.814625 -4.435766 -1.890674 -8.692856 44.733702 -27.052837 34.941841 -10.135563 1.638135 -2.473463 0.000000 0.000000 0.000000 -88.637373 -5.898634 -0.859405 4.824665 -2.020460 1.277715 4.355182 -0.992378 -1.623546 1.037187 0.637036 -0.352311 0.000000 0.000000 0.000000 5.358805 -1.464449 -1.569340 -8.936308 -1.052522 1.950136 -10.339756 -1.957124 5.925004 0.000000 0.000000 0.000000 6.480680 -1.586831 -1.269530 -0.134657 2.128626 -6.448788 -4.377232 1.075372 -3.385208 38.259025 -32.541477 -36.587151 -29.043324 -89.302825 -28.433972 0.000000 0.000000 0.000000 5.738170 -1.364826 -1.479319 0.528912 -2.472131 16.442623 -0.034296 3.013647 -0.510216 -45.142267 47.150326 60.203965 -175.535069 79.613764 174.097601 0.000000 0.000000 0.000000 
0.135398 114.941147 -5.694839 0.000000 0.000000 0.000000 -87.645199 -4.766720 1.089332 7.803028 19.100981 8.809109 -5.238489 7.672787 8.982027 37.414615 27.606668 -27.383333 -11.650518 0.265865 5.870529 0.000000 0.000000 0.000000 -89.948558 -0.765138 4.135935 2.295243 -23.468014 -13.518447 -4.720508 -1.932847 -8.711124 45.885119 -26.820165 35.016379 -11.282474 1.613286 -2.515477 0.000000 0.000000 0.000000 -88.604889 -5.912548 -1.060996 4.726405 -1.812345 1.473597 4.434877 -0.951356 -1.528252 1.238780 0.520940 -0.226534 0.000000 0.000000 0.000000 5.291269 -1.360952 -1.534056 -7.923620 -0.920774 1.308351 -6.918694 -1.444719 5.602429 0.000000 0.000000 0.000000 6.600377 -1.559620 -1.260222 -0.113969 1.826160 -6.504621 -4.131093 1.021382 -2.844494 38.542491 -32.942282 -36.175421 -38.642823 -89.687842 -38.113808 0.000000 0.000000 0.000000 5.906332 -1.251945 -1.364556 0.611224 -2.417083 16.284954 -0.257611 3.061900 -0.606479 -40.345111 48.282457 56.099356 -175.752351 79.319199 174.537930 0.000000 0.000000 0.000000 
0.154162 114.801292 -5.450695 0.000000 0.000000 0.000000 -87.290104 -4.910368 0.776273 7.094396 18.338891 9.214811 -5.028713 7.520854 9.074926 37.606164 28.044284 -27.422909 -11.239515 0.291704 5.670877 0.000000 0.000000 0.000000 -89.373394 -0.985210 3.656470 2.153771 -22.873851 -13.132433 -5.096326 -2.003804 -8.802366 46.846232 -26.910443 34.965801 -12.036342 1.573325 -2.609356 0.000000 0.000000 0.000000 -88.246065 -6.032674 -1.398806 4.643826 -1.580547 1.628960 4.537284 -0.936598 -1.381627 1.309452 0.322976 -0.160232 0.000000 0.000000 0.000000 5.177040 -1.256411 -1.441381 -6.324988 -0.860069 0.602478 -1.888197 -1.181186 4.915983 0.000000 0.000000 0.000000 6.752760 -1.552758 -1.177092 -0.093181 1.800325 -6.679630 -3.776940 1.021981 -2.364211 39.108936 -33.480891 -35.476433 -52.101636 -89.817616 -51.688310 0.000000 0.000000 0.000000 6.112735 -1.166613 -1.210858 0.715142 -2.653771 16.572399 -0.238018 3.146921 -0.638294 -32.199011 49.453575 49.775127 -177.191814 77.748822 176.279806 0.000000 0.000000 0.000000 
0.138075 114.638412 -5.152229 0.000000 0.000000 0.000000 -86.720767 -5.117988 0.403152 6.065045 17.646770 9.496374 -5.074869 7.304026 9.193046 37.750889 28.392463 -27.294580 -10.779797 0.334670 5.304652 0.000000 0.000000 0.000000 -88.525576 -1.176136 3.182120 1.977934 -21.946745 -12.715858 -5.479097 -2.100473 -8.966344 47.557101 -27.294023 34.733250 -12.394977 1.545993 -2.691584 0.000000 0.000000 0.000000 -87.654024 -6.201868 -1.811719 4.612797 -1.370950 1.708191 4.635164 -0.964485 -1.196199 1.296405 0.297465 -0.108699 0.000000 0.000000 0.000000 5.011208 -1.187904 -1.293802 -4.258018 -0.916620 -0.061695 4.341935 -1.227693 3.964495 0.000000 0.000000 0.000000 6.883392 -1.582616 -1.026038 -0.074200 2.080828 -6.864268 -3.503115 0.998649 -2.044757 39.790626 -34.135154 -34.665898 -31.005985 -89.570213 -30.729489 0.000000 0.000000 0.000000 6.281979 -1.133218 -1.026838 0.829870 -3.238239 17.257658 -0.080665 3.310843 -0.691480 -21.952127 49.565453 42.384869 -178.798015 74.866947 178.227557 0.000000 0.000000 0.000000 
0.104704 114.460587 -4.879158 0.000000 0.000000 0.000000 -85.999957 -5.368646 -0.014182 4.827496 17.160956 9.661656 -5.328789 7.039709 9.300994 37.845907 28.534671 -27.035951 -10.513961 0.353603 4.917805 0.000000 0.000000 0.000000 -87.582744 -1.331118 2.721722 1.684640 -20.903451 -12.321621 -5.792288 -2.195175 -9.160508 48.246735 -27.741594 34.478361 -12.650689 1.548990 -2.765385 0.000000 0.000000 0.000000 -86.896044 -6.383024 -2.265060 4.661602 -1.223192 1.703011 4.701442 -1.052572 -0.980702 1.179416 0.350213 -0.146707 0.000000 0.000000 0.000000 4.793045 -1.168789 -1.100839 -1.906955 -1.036105 -0.626121 11.115815 -1.638945 2.884877 0.000000 0.000000 0.000000 6.941152 -1.654193 -0.819182 -0.064092 2.632291 -6.991541 -3.256398 0.987094 -1.982904 40.503001 -34.908991 -33.855151 -21.130455 -88.866157 -21.009635 0.000000 0.000000 0.000000 6.370244 -1.156080 -0.818370 0.957554 -4.149411 18.218172 0.147916 3.441185 -0.606108 -11.769032 48.078784 35.763113 -179.920447 71.145375 179.656091 0.000000 0.000000 0.000000 
0.061160 114.288948 -4.598827 0.000000 0.000000 0.000000 -85.226732 -5.584730 -0.418304 3.490958 16.978976 9.763948 -5.630797 6.733021 9.365683 37.943480 28.367377 -26.684270 -10.465645 0.329481 4.616183 0.000000 0.000000 0.000000 -86.687074 -1.416231 2.317615 1.205063 -19.931723 -12.029623 -5.994184 -2.232354 -9.342270 49.128834 -27.959603 34.397178 -13.099432 1.577884 -2.822450 0.000000 0.000000 0.000000 -86.070745 -6.560284 -2.726102 4.805819 -1.147326 1.628303 4.709887 -1.204758 -0.732925 1.073560 0.568564 -0.134578 0.000000 0.000000 0.000000 4.534579 -1.223358 -0.864407 0.456969 -1.186550 -1.045511 17.808880 -2.263668 1.824355 0.000000 0.000000 0.000000 6.873923 -1.768760 -0.570479 -0.076872 3.378101 -7.038270 -3.033575 0.955970 -2.182722 41.207269 -35.814640 -33.065373 -17.283471 -87.838432 -17.330917 0.000000 0.000000 0.000000 6.352096 -1.223716 -0.588349 1.077799 -5.292024 19.365663 0.420408 3.624007 -0.442110 -3.507142 45.279499 31.380423 179.413879 67.466437 -179.451937 0.000000 0.000000 0.000000 
0.013865 114.145523 -4.347492 0.000000 0.000000 0.000000 -84.519336 -5.737462 -0.774676 2.136028 17.118081 9.895036 -5.799220 6.369069 9.366839 38.201228 27.838017 -26.361836 -10.557608 0.265809 4.465521 0.000000 0.000000 0.000000 -85.893905 -1.460458 1.949693 0.621814 -19.156293 -11.826596 -6.074724 -2.195192 -9.500945 50.102921 -27.917553 34.473785 -13.743288 1.615935 -2.873716 0.000000 0.000000 0.000000 -85.288258 -6.744013 -3.181433 5.029832 -1.139013 1.517593 4.643454 -1.413738 -0.467437 0.986361 0.835909 -0.170783 0.000000 0.000000 0.000000 4.263576 -1.351489 -0.604195 2.584500 -1.296763 -1.277130 23.812999 -2.981882 0.886992 0.000000 0.000000 0.000000 6.678050 -1.924736 -0.307956 -0.116491 4.214224 -7.019577 -2.765974 0.989712 -2.575235 41.898344 -36.748767 -32.299644 -15.187172 -86.707885 -15.406991 0.000000 0.000000 0.000000 6.226302 -1.340811 -0.347721 1.183020 -6.491369 20.550998 0.758937 3.776099 -0.249444 2.295540 41.968736 29.430001 179.017865 64.637980 -178.917557 0.000000 0.000000 0.000000 
